<mxfile host="Electron" agent="Mozilla/5.0 (Windows NT 10.0; Win64; x64) AppleWebKit/537.36 (KHTML, like Gecko) draw.io/24.7.8 Chrome/128.0.6613.36 Electron/32.0.1 Safari/537.36" version="24.7.8">
  <diagram name="Pagina-1" id="WOPXLZ8bByILrRlUvcWw">
    <mxGraphModel dx="3438" dy="1144" grid="1" gridSize="10" guides="1" tooltips="1" connect="1" arrows="1" fold="1" page="1" pageScale="1" pageWidth="827" pageHeight="1169" math="0" shadow="0">
      <root>
        <mxCell id="0" />
        <mxCell id="1" parent="0" />
        <mxCell id="RnKj0fFhlUNERZoiov5r-7" style="edgeStyle=orthogonalEdgeStyle;rounded=0;orthogonalLoop=1;jettySize=auto;html=1;entryX=0;entryY=0.5;entryDx=0;entryDy=0;" edge="1" parent="1" source="RnKj0fFhlUNERZoiov5r-1" target="RnKj0fFhlUNERZoiov5r-2">
          <mxGeometry relative="1" as="geometry" />
        </mxCell>
        <mxCell id="RnKj0fFhlUNERZoiov5r-8" style="edgeStyle=orthogonalEdgeStyle;rounded=0;orthogonalLoop=1;jettySize=auto;html=1;entryX=0;entryY=0.5;entryDx=0;entryDy=0;" edge="1" parent="1" source="RnKj0fFhlUNERZoiov5r-1" target="RnKj0fFhlUNERZoiov5r-4">
          <mxGeometry relative="1" as="geometry" />
        </mxCell>
        <mxCell id="RnKj0fFhlUNERZoiov5r-13" style="edgeStyle=orthogonalEdgeStyle;rounded=0;orthogonalLoop=1;jettySize=auto;html=1;entryX=0;entryY=0.5;entryDx=0;entryDy=0;" edge="1" parent="1" source="RnKj0fFhlUNERZoiov5r-1" target="RnKj0fFhlUNERZoiov5r-9">
          <mxGeometry relative="1" as="geometry" />
        </mxCell>
        <mxCell id="RnKj0fFhlUNERZoiov5r-14" style="edgeStyle=orthogonalEdgeStyle;rounded=0;orthogonalLoop=1;jettySize=auto;html=1;entryX=0;entryY=0.5;entryDx=0;entryDy=0;" edge="1" parent="1" source="RnKj0fFhlUNERZoiov5r-1" target="RnKj0fFhlUNERZoiov5r-10">
          <mxGeometry relative="1" as="geometry" />
        </mxCell>
        <mxCell id="RnKj0fFhlUNERZoiov5r-21" style="edgeStyle=orthogonalEdgeStyle;rounded=0;orthogonalLoop=1;jettySize=auto;html=1;entryX=0;entryY=0.5;entryDx=0;entryDy=0;" edge="1" parent="1" source="RnKj0fFhlUNERZoiov5r-1" target="RnKj0fFhlUNERZoiov5r-19">
          <mxGeometry relative="1" as="geometry" />
        </mxCell>
        <mxCell id="RnKj0fFhlUNERZoiov5r-22" style="edgeStyle=orthogonalEdgeStyle;rounded=0;orthogonalLoop=1;jettySize=auto;html=1;entryX=0;entryY=0.5;entryDx=0;entryDy=0;endArrow=doubleBlock;endFill=1;" edge="1" parent="1" source="RnKj0fFhlUNERZoiov5r-1" target="RnKj0fFhlUNERZoiov5r-3">
          <mxGeometry relative="1" as="geometry" />
        </mxCell>
        <mxCell id="RnKj0fFhlUNERZoiov5r-1" value="Utente" style="rounded=0;whiteSpace=wrap;html=1;" vertex="1" parent="1">
          <mxGeometry x="-70" y="200" width="120" height="60" as="geometry" />
        </mxCell>
        <mxCell id="RnKj0fFhlUNERZoiov5r-2" value="" style="ellipse;whiteSpace=wrap;html=1;aspect=fixed;fillColor=#33001A;" vertex="1" parent="1">
          <mxGeometry x="20" y="290" width="20" height="20" as="geometry" />
        </mxCell>
        <mxCell id="RnKj0fFhlUNERZoiov5r-3" value="Effettua" style="rhombus;whiteSpace=wrap;html=1;" vertex="1" parent="1">
          <mxGeometry x="170" y="195" width="70" height="70" as="geometry" />
        </mxCell>
        <mxCell id="RnKj0fFhlUNERZoiov5r-4" value="" style="ellipse;whiteSpace=wrap;html=1;aspect=fixed;" vertex="1" parent="1">
          <mxGeometry x="20" y="350" width="20" height="20" as="geometry" />
        </mxCell>
        <mxCell id="RnKj0fFhlUNERZoiov5r-5" value="UtenteID" style="text;html=1;align=left;verticalAlign=middle;whiteSpace=wrap;rounded=0;" vertex="1" parent="1">
          <mxGeometry x="40" y="285" width="60" height="30" as="geometry" />
        </mxCell>
        <mxCell id="RnKj0fFhlUNERZoiov5r-6" value="Nome" style="text;html=1;align=left;verticalAlign=middle;whiteSpace=wrap;rounded=0;" vertex="1" parent="1">
          <mxGeometry x="40" y="345" width="60" height="30" as="geometry" />
        </mxCell>
        <mxCell id="RnKj0fFhlUNERZoiov5r-9" value="" style="ellipse;whiteSpace=wrap;html=1;aspect=fixed;fillColor=#FFFFFF;" vertex="1" parent="1">
          <mxGeometry x="20" y="380" width="20" height="20" as="geometry" />
        </mxCell>
        <mxCell id="RnKj0fFhlUNERZoiov5r-10" value="" style="ellipse;whiteSpace=wrap;html=1;aspect=fixed;" vertex="1" parent="1">
          <mxGeometry x="20" y="410" width="20" height="20" as="geometry" />
        </mxCell>
        <mxCell id="RnKj0fFhlUNERZoiov5r-11" value="Cognome" style="text;html=1;align=left;verticalAlign=middle;whiteSpace=wrap;rounded=0;" vertex="1" parent="1">
          <mxGeometry x="40" y="375" width="60" height="30" as="geometry" />
        </mxCell>
        <mxCell id="RnKj0fFhlUNERZoiov5r-12" value="Email" style="text;html=1;align=left;verticalAlign=middle;whiteSpace=wrap;rounded=0;" vertex="1" parent="1">
          <mxGeometry x="40" y="405" width="60" height="30" as="geometry" />
        </mxCell>
        <mxCell id="RnKj0fFhlUNERZoiov5r-19" value="" style="ellipse;whiteSpace=wrap;html=1;aspect=fixed;" vertex="1" parent="1">
          <mxGeometry x="20" y="320" width="20" height="20" as="geometry" />
        </mxCell>
        <mxCell id="RnKj0fFhlUNERZoiov5r-20" value="CodiceUtente" style="text;html=1;align=left;verticalAlign=middle;whiteSpace=wrap;rounded=0;" vertex="1" parent="1">
          <mxGeometry x="40" y="315" width="90" height="30" as="geometry" />
        </mxCell>
        <mxCell id="RnKj0fFhlUNERZoiov5r-23" style="edgeStyle=orthogonalEdgeStyle;rounded=0;orthogonalLoop=1;jettySize=auto;html=1;entryX=0;entryY=0.5;entryDx=0;entryDy=0;" edge="1" parent="1" source="RnKj0fFhlUNERZoiov5r-28" target="RnKj0fFhlUNERZoiov5r-29">
          <mxGeometry relative="1" as="geometry" />
        </mxCell>
        <mxCell id="RnKj0fFhlUNERZoiov5r-24" style="edgeStyle=orthogonalEdgeStyle;rounded=0;orthogonalLoop=1;jettySize=auto;html=1;entryX=0;entryY=0.5;entryDx=0;entryDy=0;" edge="1" parent="1" source="RnKj0fFhlUNERZoiov5r-28" target="RnKj0fFhlUNERZoiov5r-30">
          <mxGeometry relative="1" as="geometry" />
        </mxCell>
        <mxCell id="RnKj0fFhlUNERZoiov5r-25" style="edgeStyle=orthogonalEdgeStyle;rounded=0;orthogonalLoop=1;jettySize=auto;html=1;entryX=0;entryY=0.5;entryDx=0;entryDy=0;" edge="1" parent="1" source="RnKj0fFhlUNERZoiov5r-28" target="RnKj0fFhlUNERZoiov5r-33">
          <mxGeometry relative="1" as="geometry" />
        </mxCell>
        <mxCell id="RnKj0fFhlUNERZoiov5r-27" style="edgeStyle=orthogonalEdgeStyle;rounded=0;orthogonalLoop=1;jettySize=auto;html=1;entryX=0;entryY=0.5;entryDx=0;entryDy=0;" edge="1" parent="1" source="RnKj0fFhlUNERZoiov5r-28" target="RnKj0fFhlUNERZoiov5r-37">
          <mxGeometry relative="1" as="geometry" />
        </mxCell>
        <mxCell id="RnKj0fFhlUNERZoiov5r-41" style="edgeStyle=orthogonalEdgeStyle;rounded=0;orthogonalLoop=1;jettySize=auto;html=1;entryX=1;entryY=0.5;entryDx=0;entryDy=0;" edge="1" parent="1" source="RnKj0fFhlUNERZoiov5r-28" target="RnKj0fFhlUNERZoiov5r-3">
          <mxGeometry relative="1" as="geometry" />
        </mxCell>
        <mxCell id="RnKj0fFhlUNERZoiov5r-60" style="edgeStyle=orthogonalEdgeStyle;rounded=0;orthogonalLoop=1;jettySize=auto;html=1;entryX=0;entryY=0.5;entryDx=0;entryDy=0;" edge="1" parent="1" source="RnKj0fFhlUNERZoiov5r-28" target="RnKj0fFhlUNERZoiov5r-59">
          <mxGeometry relative="1" as="geometry" />
        </mxCell>
        <mxCell id="RnKj0fFhlUNERZoiov5r-28" value="Prestito" style="rounded=0;whiteSpace=wrap;html=1;" vertex="1" parent="1">
          <mxGeometry x="360" y="200" width="120" height="60" as="geometry" />
        </mxCell>
        <mxCell id="RnKj0fFhlUNERZoiov5r-29" value="" style="ellipse;whiteSpace=wrap;html=1;aspect=fixed;fillColor=#33001A;" vertex="1" parent="1">
          <mxGeometry x="450" y="290" width="20" height="20" as="geometry" />
        </mxCell>
        <mxCell id="RnKj0fFhlUNERZoiov5r-30" value="" style="ellipse;whiteSpace=wrap;html=1;aspect=fixed;" vertex="1" parent="1">
          <mxGeometry x="450" y="350" width="20" height="20" as="geometry" />
        </mxCell>
        <mxCell id="RnKj0fFhlUNERZoiov5r-31" value="PrestitoID" style="text;html=1;align=left;verticalAlign=middle;whiteSpace=wrap;rounded=0;" vertex="1" parent="1">
          <mxGeometry x="470" y="285" width="60" height="30" as="geometry" />
        </mxCell>
        <mxCell id="RnKj0fFhlUNERZoiov5r-32" value="DataPrestito" style="text;html=1;align=left;verticalAlign=middle;whiteSpace=wrap;rounded=0;" vertex="1" parent="1">
          <mxGeometry x="470" y="345" width="60" height="30" as="geometry" />
        </mxCell>
        <mxCell id="RnKj0fFhlUNERZoiov5r-33" value="" style="ellipse;whiteSpace=wrap;html=1;aspect=fixed;fillColor=#FFFFFF;" vertex="1" parent="1">
          <mxGeometry x="450" y="380" width="20" height="20" as="geometry" />
        </mxCell>
        <mxCell id="RnKj0fFhlUNERZoiov5r-35" value="DataRitorno" style="text;html=1;align=left;verticalAlign=middle;whiteSpace=wrap;rounded=0;" vertex="1" parent="1">
          <mxGeometry x="470" y="375" width="60" height="30" as="geometry" />
        </mxCell>
        <mxCell id="RnKj0fFhlUNERZoiov5r-37" value="" style="ellipse;whiteSpace=wrap;html=1;aspect=fixed;" vertex="1" parent="1">
          <mxGeometry x="450" y="320" width="20" height="20" as="geometry" />
        </mxCell>
        <mxCell id="RnKj0fFhlUNERZoiov5r-38" value="CodicePrestito" style="text;html=1;align=left;verticalAlign=middle;whiteSpace=wrap;rounded=0;" vertex="1" parent="1">
          <mxGeometry x="470" y="315" width="106" height="30" as="geometry" />
        </mxCell>
        <mxCell id="RnKj0fFhlUNERZoiov5r-42" value="" style="endArrow=none;html=1;rounded=0;" edge="1" parent="1">
          <mxGeometry width="50" height="50" relative="1" as="geometry">
            <mxPoint x="69.41" y="260" as="sourcePoint" />
            <mxPoint x="69.41" y="205" as="targetPoint" />
          </mxGeometry>
        </mxCell>
        <mxCell id="RnKj0fFhlUNERZoiov5r-43" style="edgeStyle=orthogonalEdgeStyle;rounded=0;orthogonalLoop=1;jettySize=auto;html=1;entryX=0;entryY=0.5;entryDx=0;entryDy=0;" edge="1" parent="1" source="RnKj0fFhlUNERZoiov5r-48" target="RnKj0fFhlUNERZoiov5r-49">
          <mxGeometry relative="1" as="geometry" />
        </mxCell>
        <mxCell id="RnKj0fFhlUNERZoiov5r-44" style="edgeStyle=orthogonalEdgeStyle;rounded=0;orthogonalLoop=1;jettySize=auto;html=1;entryX=0;entryY=0.5;entryDx=0;entryDy=0;" edge="1" parent="1" source="RnKj0fFhlUNERZoiov5r-48" target="RnKj0fFhlUNERZoiov5r-50">
          <mxGeometry relative="1" as="geometry" />
        </mxCell>
        <mxCell id="RnKj0fFhlUNERZoiov5r-45" style="edgeStyle=orthogonalEdgeStyle;rounded=0;orthogonalLoop=1;jettySize=auto;html=1;entryX=0;entryY=0.5;entryDx=0;entryDy=0;" edge="1" parent="1" source="RnKj0fFhlUNERZoiov5r-48" target="RnKj0fFhlUNERZoiov5r-53">
          <mxGeometry relative="1" as="geometry" />
        </mxCell>
        <mxCell id="RnKj0fFhlUNERZoiov5r-47" style="edgeStyle=orthogonalEdgeStyle;rounded=0;orthogonalLoop=1;jettySize=auto;html=1;entryX=0;entryY=0.5;entryDx=0;entryDy=0;" edge="1" parent="1" source="RnKj0fFhlUNERZoiov5r-48" target="RnKj0fFhlUNERZoiov5r-57">
          <mxGeometry relative="1" as="geometry" />
        </mxCell>
        <mxCell id="RnKj0fFhlUNERZoiov5r-61" style="edgeStyle=orthogonalEdgeStyle;rounded=0;orthogonalLoop=1;jettySize=auto;html=1;entryX=1;entryY=0.5;entryDx=0;entryDy=0;endArrow=doubleBlock;endFill=1;" edge="1" parent="1" source="RnKj0fFhlUNERZoiov5r-48" target="RnKj0fFhlUNERZoiov5r-59">
          <mxGeometry relative="1" as="geometry" />
        </mxCell>
        <mxCell id="RnKj0fFhlUNERZoiov5r-65" style="edgeStyle=orthogonalEdgeStyle;rounded=0;orthogonalLoop=1;jettySize=auto;html=1;entryX=0;entryY=0.5;entryDx=0;entryDy=0;" edge="1" parent="1" source="RnKj0fFhlUNERZoiov5r-48" target="RnKj0fFhlUNERZoiov5r-63">
          <mxGeometry relative="1" as="geometry" />
        </mxCell>
        <mxCell id="RnKj0fFhlUNERZoiov5r-69" style="edgeStyle=orthogonalEdgeStyle;rounded=0;orthogonalLoop=1;jettySize=auto;html=1;entryX=0;entryY=0.5;entryDx=0;entryDy=0;" edge="1" parent="1" source="RnKj0fFhlUNERZoiov5r-48" target="RnKj0fFhlUNERZoiov5r-67">
          <mxGeometry relative="1" as="geometry" />
        </mxCell>
        <mxCell id="RnKj0fFhlUNERZoiov5r-48" value="Libro" style="rounded=0;whiteSpace=wrap;html=1;" vertex="1" parent="1">
          <mxGeometry x="780" y="200" width="120" height="60" as="geometry" />
        </mxCell>
        <mxCell id="RnKj0fFhlUNERZoiov5r-49" value="" style="ellipse;whiteSpace=wrap;html=1;aspect=fixed;fillColor=#33001A;" vertex="1" parent="1">
          <mxGeometry x="870" y="290" width="20" height="20" as="geometry" />
        </mxCell>
        <mxCell id="RnKj0fFhlUNERZoiov5r-50" value="" style="ellipse;whiteSpace=wrap;html=1;aspect=fixed;" vertex="1" parent="1">
          <mxGeometry x="870" y="405" width="20" height="20" as="geometry" />
        </mxCell>
        <mxCell id="RnKj0fFhlUNERZoiov5r-51" value="LibroID" style="text;html=1;align=left;verticalAlign=middle;whiteSpace=wrap;rounded=0;" vertex="1" parent="1">
          <mxGeometry x="890" y="285" width="60" height="30" as="geometry" />
        </mxCell>
        <mxCell id="RnKj0fFhlUNERZoiov5r-52" value="AnnoPubblicazione" style="text;html=1;align=left;verticalAlign=middle;whiteSpace=wrap;rounded=0;" vertex="1" parent="1">
          <mxGeometry x="890" y="400" width="110" height="30" as="geometry" />
        </mxCell>
        <mxCell id="RnKj0fFhlUNERZoiov5r-53" value="" style="ellipse;whiteSpace=wrap;html=1;aspect=fixed;fillColor=#FFFFFF;" vertex="1" parent="1">
          <mxGeometry x="870" y="435" width="20" height="20" as="geometry" />
        </mxCell>
        <mxCell id="RnKj0fFhlUNERZoiov5r-55" value="Status" style="text;html=1;align=left;verticalAlign=middle;whiteSpace=wrap;rounded=0;" vertex="1" parent="1">
          <mxGeometry x="890" y="430" width="60" height="30" as="geometry" />
        </mxCell>
        <mxCell id="RnKj0fFhlUNERZoiov5r-57" value="" style="ellipse;whiteSpace=wrap;html=1;aspect=fixed;" vertex="1" parent="1">
          <mxGeometry x="870" y="375" width="20" height="20" as="geometry" />
        </mxCell>
        <mxCell id="RnKj0fFhlUNERZoiov5r-58" value="Titolo" style="text;html=1;align=left;verticalAlign=middle;whiteSpace=wrap;rounded=0;" vertex="1" parent="1">
          <mxGeometry x="890" y="370" width="106" height="30" as="geometry" />
        </mxCell>
        <mxCell id="RnKj0fFhlUNERZoiov5r-59" value="Dato" style="rhombus;whiteSpace=wrap;html=1;" vertex="1" parent="1">
          <mxGeometry x="590" y="195" width="70" height="70" as="geometry" />
        </mxCell>
        <mxCell id="RnKj0fFhlUNERZoiov5r-62" value="" style="endArrow=none;html=1;rounded=0;" edge="1" parent="1">
          <mxGeometry width="50" height="50" relative="1" as="geometry">
            <mxPoint x="760" y="260" as="sourcePoint" />
            <mxPoint x="760" y="205" as="targetPoint" />
          </mxGeometry>
        </mxCell>
        <mxCell id="RnKj0fFhlUNERZoiov5r-63" value="" style="ellipse;whiteSpace=wrap;html=1;aspect=fixed;fillColor=#FFFFFF;" vertex="1" parent="1">
          <mxGeometry x="870" y="320" width="20" height="20" as="geometry" />
        </mxCell>
        <mxCell id="RnKj0fFhlUNERZoiov5r-64" value="CodiceLibro" style="text;html=1;align=left;verticalAlign=middle;whiteSpace=wrap;rounded=0;" vertex="1" parent="1">
          <mxGeometry x="890" y="315" width="60" height="30" as="geometry" />
        </mxCell>
        <mxCell id="RnKj0fFhlUNERZoiov5r-67" value="" style="ellipse;whiteSpace=wrap;html=1;aspect=fixed;fillColor=#FFFFFF;" vertex="1" parent="1">
          <mxGeometry x="870" y="345" width="20" height="20" as="geometry" />
        </mxCell>
        <mxCell id="RnKj0fFhlUNERZoiov5r-68" value="Autore" style="text;html=1;align=left;verticalAlign=middle;whiteSpace=wrap;rounded=0;" vertex="1" parent="1">
          <mxGeometry x="890" y="340" width="60" height="30" as="geometry" />
        </mxCell>
      </root>
    </mxGraphModel>
  </diagram>
</mxfile>
